<?xml version="1.0" encoding="utf-8"?>
<!-- Generator: Adobe Illustrator 15.1.0, SVG Export Plug-In . SVG Version: 6.00 Build 0)  -->
<!DOCTYPE svg PUBLIC "-//W3C//DTD SVG 1.1//EN" "http://www.w3.org/Graphics/SVG/1.1/DTD/svg11.dtd">
<svg version="1.1" id="Layer_1" xmlns="http://www.w3.org/2000/svg" xmlns:xlink="http://www.w3.org/1999/xlink" x="0px" y="0px"
	 width="140px" height="140px" viewBox="0 0 140 140" enable-background="new 0 0 140 140" xml:space="preserve">
<g>
	<g>
		<defs>
			<rect id="SVGID_1_" x="0.025" y="0.025" width="139.949" height="139.949"/>
		</defs>
		<clipPath id="SVGID_2_">
			<use xlink:href="#SVGID_1_"  overflow="visible"/>
		</clipPath>
		<circle clip-path="url(#SVGID_2_)" fill="none" stroke="#1C75BD" stroke-width="3" cx="70" cy="70" r="68.5"/>
	</g>
	<g>
		<defs>
			<rect id="SVGID_3_" x="0.025" y="0.025" width="139.949" height="139.949"/>
		</defs>
		<clipPath id="SVGID_4_">
			<use xlink:href="#SVGID_3_"  overflow="visible"/>
		</clipPath>
		<path clip-path="url(#SVGID_4_)" fill="none" stroke="#1C75BD" stroke-width="3" stroke-miterlimit="10" d="M90.94,98.18
			l-15.84-15.414l7.989-7.779l15.841,15.416L90.94,98.18z M71.246,75.791l5.375,5.23 M75.93,71.234l5.373,5.231 M73.59,46.774
			c7.584,7.384,7.584,19.354,0,26.736c-7.588,7.386-19.888,7.384-27.473,0c-7.584-7.381-7.586-19.352,0-26.736
			C53.704,39.391,66.003,39.392,73.59,46.774z M69.743,50.519c5.462,5.315,5.464,13.935,0,19.25
			c-5.464,5.318-14.318,5.316-19.78,0.001c-5.462-5.314-5.461-13.933,0-19.25C55.426,45.202,64.282,45.202,69.743,50.519z"/>
	</g>
</g>
</svg>
